<svg width="1024" height="1024" xmlns="http://www.w3.org/2000/svg" xmlns:svg="http://www.w3.org/2000/svg">
 <!-- Created with SVG-edit - http://svg-edit.googlecode.com/ -->
 <g>
  <title>Layer 1</title>
  <path stroke="#000000" fill="#000000" stroke-width="0" d="m394.47484,300.2974c-0.65055,12.37269 -52.59556,-0.00684 -123.15744,48.82483c-29.49146,20.37111 -60.29599,52.48795 -78.66325,96.04059c0,0 0,0 0,0c-14.69791,34.73143 -21.31697,77.30571 -13.56872,120.18421c6.72707,37.54405 24.79478,75.82703 53.61947,106.14108c26.33571,27.78744 62.27753,49.28788 102.06533,58.50304c37.39841,8.73009 78.99413,6.65914 116.74149,-7.38172c9.39508,-3.47569 18.59499,-7.71151 27.48762,-12.6483c26.10443,-14.49201 48.74302,-34.55795 65.72264,-57.80625c23.94933,-32.67026 37.23396,-72.2369 39.05297,-110.53479c1.84261,-30.82156 -5.00034,-69.14566 -7.50328,-105.13003c-3.86171,-41.09061 0.15255,-84.16283 20.0223,-123.07823c0,0 0.00007,-0.00007 0.00007,-0.00007c21.49934,-39.5546 58.30343,-64.75687 96.41259,-73.6034c44.18978,-10.01286 86.36601,1.94351 116.1157,23.49299c37.77793,27.62963 53.69144,67.72225 56.10791,99.77076c2.64796,36.83262 -10.95592,64.62629 -21.31779,78.98244c-11.05819,15.3209 -20.35175,19.63553 -22.20092,18.06347c-2.48256,-2.11049 2.19805,-10.22567 7.27193,-25.84065c4.7945,-14.75538 10.65828,-39.61514 4.40636,-66.77789c-5.31748,-23.60149 -21.20546,-51.56083 -48.74028,-67.63947c-21.33174,-12.65049 -51.30923,-18.10485 -78.61872,-9.64073c-23.48403,7.06356 -46.53039,25.38048 -57.90168,49.7107c0,0.00007 0,0.00007 0,0.00007c-12.47968,23.95077 -12.19497,55.27547 -9.24383,91.03546c3.46529,31.39064 11.53225,71.60003 10.86015,112.95072c-1.313,51.29446 -17.8276,103.56488 -49.68423,148.04888c-22.68285,31.58676 -52.58263,58.41555 -87.5829,77.81542c-11.91943,6.60667 -24.29801,12.27692 -37.01417,16.95657c-51.17728,18.75745 -106.0252,20.89483 -156.18889,8.39203c-53.28722,-13.35426 -99.48947,-42.63599 -133.32661,-80.53124c-36.87872,-41.40439 -57.93034,-91.50816 -64.31661,-140.49799c-7.22021,-55.88518 4.53531,-108.43135 25.99094,-150.32437c0,0 0,-0.00007 0,-0.00007c26.88023,-52.35627 67.61047,-86.9186 104.96141,-106.49776c89.86769,-47.02162 142.14516,-16.11948 142.19044,-16.98031z" id="svg_1"/>
 </g>
</svg>