<svg width="1024" height="1024" xmlns="http://www.w3.org/2000/svg" xmlns:svg="http://www.w3.org/2000/svg">
 <!-- Created with SVG-edit - http://svg-edit.googlecode.com/ -->
 <g>
  <title>Layer 1</title>
  <path stroke="#000000" id="svg_1" d="m497.13252,283.90142c-198.15236,0 -354.49998,202.56392 -354.49998,202.56392s156.34762,202.59017 354.49998,202.59017c151.54218,0 354.49998,-202.59017 354.49998,-202.59017s-202.9578,-202.56392 -354.49998,-202.56392zm0,328.79217c-69.56077,0 -126.22825,-56.64122 -126.22825,-126.22825s56.66748,-126.22825 126.22825,-126.22825s126.22825,56.66748 126.22825,126.22825s-56.66748,126.22825 -126.22825,126.22825zm0,-199.91173c-40.67559,0 -73.68348,32.98163 -73.68348,73.68348c0,40.70185 32.98163,73.68348 73.68348,73.68348c40.70185,0 73.68348,-32.98163 73.68348,-73.68348c0,-40.67559 -32.98163,-73.68348 -73.68348,-73.68348z" fill-opacity="0" stroke-linecap="round" stroke-linejoin="round" stroke-dasharray="null" stroke-width="38" fill="#000000"/>
 </g>
</svg>